REM DIRINDEX 1\5,1\2\6,1\2\7,1\3\8,1\3\9,1\4\10,1\4\11,1\4\12
REM DIRNAME cjc026,folder01,folder02,folder03,folder04,folder05,folder06,folder07,folder08,folder09,folder10,folder11
TITLE ""
FILE "EJE_DB3000_5th_2A_33.mp3" MP3
  TRACK 01 AUDIO
    TITLE "0:"
    INDEX 01 00:00:00
  TRACK 02 AUDIO
    TITLE "10:cjc026_07797"
    INDEX 01 00:00:08
  TRACK 03 AUDIO
    TITLE "0:"
    INDEX 01 00:01:22
  TRACK 04 AUDIO
    TITLE "11:cjc026_07798"
    INDEX 01 00:01:57
  TRACK 05 AUDIO
    TITLE "0:"
    INDEX 01 00:03:09
  TRACK 06 AUDIO
    TITLE "12:cjc026_07799"
    INDEX 01 00:03:42
  TRACK 07 AUDIO
    TITLE "0:"
    INDEX 01 00:04:59
  TRACK 08 AUDIO
    TITLE "10:cjc026_07800"
    INDEX 01 00:05:19
  TRACK 09 AUDIO
    TITLE "0:"
    INDEX 01 00:06:30
  TRACK 10 AUDIO
    TITLE "11:cjc026_07801"
    INDEX 01 00:06:65
  TRACK 11 AUDIO
    TITLE "0:"
    INDEX 01 00:08:31
  TRACK 12 AUDIO
    TITLE "12:cjc026_07802"
    INDEX 01 00:08:66
  TRACK 13 AUDIO
    TITLE "0:"
    INDEX 01 00:10:03
  TRACK 14 AUDIO
    TITLE "10:cjc026_07803"
    INDEX 01 00:10:38
  TRACK 15 AUDIO
    TITLE "0:"
    INDEX 01 00:11:49
  TRACK 16 AUDIO
    TITLE "11:cjc026_07804"
    INDEX 01 00:12:09
  TRACK 17 AUDIO
    TITLE "0:"
    INDEX 01 00:13:40
  TRACK 18 AUDIO
    TITLE "12:cjc026_07805"
    INDEX 01 00:14:03
  TRACK 19 AUDIO
    TITLE "0:"
    INDEX 01 00:15:14
  TRACK 20 AUDIO
    TITLE "10:cjc026_07806"
    INDEX 01 00:15:49
  TRACK 21 AUDIO
    TITLE "0:"
    INDEX 01 00:16:60
  TRACK 22 AUDIO
    TITLE "11:cjc026_07807"
    INDEX 01 00:17:23
  TRACK 23 AUDIO
    TITLE "0:"
    INDEX 01 00:18:18
  TRACK 24 AUDIO
    TITLE "12:cjc026_07808"
    INDEX 01 00:18:54
  TRACK 25 AUDIO
    TITLE "0:"
    INDEX 01 00:19:65
  TRACK 26 AUDIO
    TITLE "10:cjc026_07809"
    INDEX 01 00:20:25
  TRACK 27 AUDIO
    TITLE "0:"
    INDEX 01 00:21:36
  TRACK 28 AUDIO
    TITLE "11:cjc026_07810"
    INDEX 01 00:21:74
  TRACK 29 AUDIO
    TITLE "0:"
    INDEX 01 00:23:03
  TRACK 30 AUDIO
    TITLE "12:cjc026_07811"
    INDEX 01 00:23:38
  TRACK 31 AUDIO
    TITLE "0:"
    INDEX 01 00:24:46
  TRACK 32 AUDIO
    TITLE "10:cjc026_07812"
    INDEX 01 00:25:12
  TRACK 33 AUDIO
    TITLE "0:"
    INDEX 01 00:26:26
  TRACK 34 AUDIO
    TITLE "11:cjc026_07813"
    INDEX 01 00:26:61
  TRACK 35 AUDIO
    TITLE "0:"
    INDEX 01 00:27:72
  TRACK 36 AUDIO
    TITLE "12:cjc026_07814"
    INDEX 01 00:28:33
  TRACK 37 AUDIO
    TITLE "0:"
    INDEX 01 00:29:47
  TRACK 38 AUDIO
    TITLE "10:cjc026_07815"
    INDEX 01 00:30:07
  TRACK 39 AUDIO
    TITLE "0:"
    INDEX 01 00:31:37
  TRACK 40 AUDIO
    TITLE "11:cjc026_07816"
    INDEX 01 00:31:72
  TRACK 41 AUDIO
    TITLE "0:"
    INDEX 01 00:33:33
  TRACK 42 AUDIO
    TITLE "12:cjc026_07817"
    INDEX 01 00:33:68
  TRACK 43 AUDIO
    TITLE "0:"
    INDEX 01 00:35:21
  TRACK 44 AUDIO
    TITLE "10:cjc026_07818"
    INDEX 01 00:35:58
  TRACK 45 AUDIO
    TITLE "0:"
    INDEX 01 00:37:22
  TRACK 46 AUDIO
    TITLE "11:cjc026_07819"
    INDEX 01 00:37:59
  TRACK 47 AUDIO
    TITLE "0:"
    INDEX 01 00:39:45
  TRACK 48 AUDIO
    TITLE "12:cjc026_07820"
    INDEX 01 00:40:05
  TRACK 49 AUDIO
    TITLE "0:"
    INDEX 01 00:41:46
  TRACK 50 AUDIO
    TITLE "10:cjc026_07821"
    INDEX 01 00:42:06
  TRACK 51 AUDIO
    TITLE "0:"
    INDEX 01 00:43:58
  TRACK 52 AUDIO
    TITLE "11:cjc026_07822"
    INDEX 01 00:44:18
  TRACK 53 AUDIO
    TITLE "0:"
    INDEX 01 00:45:72
  TRACK 54 AUDIO
    TITLE "12:cjc026_07823"
    INDEX 01 00:46:33
  TRACK 55 AUDIO
    TITLE "0:"
    INDEX 01 00:48:09
  TRACK 56 AUDIO
    TITLE "10:cjc026_07824"
    INDEX 01 00:48:47
  TRACK 57 AUDIO
    TITLE "0:"
    INDEX 01 00:50:16
  TRACK 58 AUDIO
    TITLE "11:cjc026_07825"
    INDEX 01 00:50:51
  TRACK 59 AUDIO
    TITLE "0:"
    INDEX 01 00:52:15
  TRACK 60 AUDIO
    TITLE "12:cjc026_07826"
    INDEX 01 00:52:50
  TRACK 61 AUDIO
    TITLE "0:"
    INDEX 01 00:54:21
  TRACK 62 AUDIO
    TITLE "10:cjc026_07827"
    INDEX 01 00:54:56
  TRACK 63 AUDIO
    TITLE "0:"
    INDEX 01 00:56:01
  TRACK 64 AUDIO
    TITLE "11:cjc026_07828"
    INDEX 01 00:56:36
  TRACK 65 AUDIO
    TITLE "0:"
    INDEX 01 00:57:72
  TRACK 66 AUDIO
    TITLE "12:cjc026_07829"
    INDEX 01 00:58:34
  TRACK 67 AUDIO
    TITLE "0:"
    INDEX 01 00:59:54
  TRACK 68 AUDIO
    TITLE "10:cjc026_07830"
    INDEX 01 01:00:14
  TRACK 69 AUDIO
    TITLE "0:"
    INDEX 01 01:01:44
  TRACK 70 AUDIO
    TITLE "11:cjc026_07831"
    INDEX 01 01:02:07
  TRACK 71 AUDIO
    TITLE "0:"
    INDEX 01 01:03:45
  TRACK 72 AUDIO
    TITLE "12:cjc026_07832"
    INDEX 01 01:04:06
  TRACK 73 AUDIO
    TITLE "0:"
    INDEX 01 01:05:33
